<svg xmlns="http://www.w3.org/2000/svg" viewBox="50.634 76 13.788 16.919">
  <defs>
    <style>
      .cls-1 {
        fill: #fff;
      }
    </style>
  </defs>
  <g id="bucket_1_" data-name="bucket (1)" transform="translate(45.08 75.988)">
    <path id="Path_1" data-name="Path 1" class="cls-1" d="M5.554,2.555c0,.026.008.049.01.074,0,.008,0,.016,0,.024l.011.057a1.158,1.158,0,0,0,.038.205L8.016,15.6a.531.531,0,0,0,.25.358,8.475,8.475,0,0,0,4.083.977,10.159,10.159,0,0,0,4.23-.95.532.532,0,0,0,.3-.385l2.4-12.679a1.292,1.292,0,0,0,.039-.205l.01-.057a.187.187,0,0,0,0-.024c0-.025.009-.049.009-.074s-.009-.059-.011-.089c0-.011,0-.021,0-.032C19.163.773,15.69.012,12.449.012S5.735.773,5.569,2.434c0,.011,0,.021,0,.032,0,.03-.012.058-.012.089ZM15.889,15.122a8.324,8.324,0,0,1-6.876.025L6.931,4.159a14.069,14.069,0,0,0,5.518.939,14.066,14.066,0,0,0,5.518-.939ZM12.449,1.075c3.791,0,5.768,1.006,5.826,1.459l-.022.117c-.246.48-2.212,1.384-5.8,1.384s-5.558-.9-5.8-1.384l-.022-.117c.057-.453,2.035-1.459,5.826-1.459Z" transform="translate(0 0)"/>
  </g>
</svg>
