<svg xmlns="http://www.w3.org/2000/svg" xmlns:xlink="http://www.w3.org/1999/xlink" viewBox="68.318 77.553 99.923 14.643">
  <defs>
    <style>
      .cls-1 {
        fill: url(#linear-gradient);
      }
    </style>
    <linearGradient id="linear-gradient" x1="0.5" x2="0.5" y2="1" gradientUnits="objectBoundingBox">
      <stop offset="0" stop-color="#98fcbd"/>
      <stop offset="1" stop-color="#9cdaf8"/>
    </linearGradient>
  </defs>
  <path id="Path_2" data-name="Path 2" class="cls-1" d="M11.048-1.837A6.242,6.242,0,0,1,8.714.044a7.35,7.35,0,0,1-3.054.6A3.932,3.932,0,0,1,4,.281,3.985,3.985,0,0,1,2.619-.782,5.256,5.256,0,0,1,1.67-2.527a7.511,7.511,0,0,1-.352-2.4q0-.3.044-.826T1.49-6.943q.083-.659.2-1.4t.259-1.485q.141-.743.308-1.433T2.6-12.5a.947.947,0,0,1,.374-.527,1.024,1.024,0,0,1,.558-.158.948.948,0,0,1,.413.1,1.364,1.364,0,0,1,.365.255,1.382,1.382,0,0,1,.264.352.828.828,0,0,1,.1.387v.079a.216.216,0,0,1-.018.079q-.1.5-.207,1.094t-.211,1.2q-.1.6-.2,1.187T3.872-7.383q-.075.492-.127.861t-.07.536q-.035.308-.053.615T3.6-4.816a6.366,6.366,0,0,0,.127,1.31,4.892,4.892,0,0,0,.461,1.248,2.292,2.292,0,0,0,.246.356,1.951,1.951,0,0,0,.338.321,1.878,1.878,0,0,0,.4.229,1.089,1.089,0,0,0,.422.088q.439,0,.866-.026a6.354,6.354,0,0,0,.813-.1A3.825,3.825,0,0,0,8-1.6a2.259,2.259,0,0,0,.6-.356,3.008,3.008,0,0,0,.554-.611,6.016,6.016,0,0,0,.444-.756,8.429,8.429,0,0,0,.356-.831q.158-.431.3-.835.123-.369.259-.918t.264-1.147q.127-.6.237-1.178t.189-1.02q.123-.686.272-1.327a12.486,12.486,0,0,1,.4-1.336.569.569,0,0,1,.176-.224,1.819,1.819,0,0,1,.3-.2,2.172,2.172,0,0,1,.343-.149.94.94,0,0,1,.286-.057.687.687,0,0,1,.571.255,1.232,1.232,0,0,1,.2.773q0,.237-.022.5t-.062.541q-.04.277-.1.549t-.127.51q-.035.123-.11.444l-.171.738q-.1.417-.2.883t-.207.888q-.1.422-.18.756t-.123.475q-.062.211-.163.514t-.224.637q-.123.334-.259.681t-.268.655q-.132.308-.259.549A2.509,2.509,0,0,1,11.048-1.837Zm4.878-6.636q.079-.308.123-.589t.075-.558q.031-.277.057-.571t.062-.62a2.735,2.735,0,0,1,.053-.3q.044-.2.105-.435T16.532-12a2.507,2.507,0,0,1,.132-.343,1.083,1.083,0,0,1,.127-.22.984.984,0,0,1,.215-.211,1.17,1.17,0,0,1,.308-.158,1.251,1.251,0,0,1,.413-.062,1.2,1.2,0,0,1,.334.048,2.777,2.777,0,0,1,.378.145.445.445,0,0,1,.215.2.652.652,0,0,1,.066.3,5.115,5.115,0,0,1-.062.686q-.062.431-.167.914-.07.29-.132.571t-.105.536q-.026.185-.083.6t-.119.936q-.062.523-.132,1.094t-.127,1.072q-.057.5-.1.875t-.062.5q-.053.448-.1.918t-.083.883q-.035.413-.053.738t-.018.483a2.007,2.007,0,0,1-.07.536,1.812,1.812,0,0,1-.189.453,1.544,1.544,0,0,1-.264.334.849.849,0,0,1-.294.189.3.3,0,0,1-.136.044,1.726,1.726,0,0,1-.18.009,1.266,1.266,0,0,1-.308-.04,2.253,2.253,0,0,1-.29-.092,1.275,1.275,0,0,1-.22-.11.315.315,0,0,1-.105-.092,2.462,2.462,0,0,1-.2-.413,1.518,1.518,0,0,1-.088-.545,3.77,3.77,0,0,1,.026-.391q.026-.242.066-.541T15.2-2.8q.04-.347.066-.716.035-.457.066-.91t.092-.848l.189-1.244.145-.954q.053-.352.092-.6T15.926-8.473Zm16.225,4.8a2.016,2.016,0,0,1-.224.809,5.7,5.7,0,0,1-.637,1.028,8.417,8.417,0,0,1-1,1.085A7.591,7.591,0,0,1,28.973.22a7.769,7.769,0,0,1-1.6.7,6,6,0,0,1-1.819.272,2.116,2.116,0,0,1-.4-.048,2.882,2.882,0,0,1-.47-.136,1.586,1.586,0,0,1-.4-.215A.36.36,0,0,1,24.126.51,1.332,1.332,0,0,1,24.258-.1a1.189,1.189,0,0,1,.369-.431,1.719,1.719,0,0,1,.558-.259,2.638,2.638,0,0,1,.7-.088h.606a2.771,2.771,0,0,0,.589-.079,4.66,4.66,0,0,0,.738-.237,5.725,5.725,0,0,0,.769-.387,3.61,3.61,0,0,0,.686-.527,2.652,2.652,0,0,0,.492-.659,1.659,1.659,0,0,0,.189-.782,1.7,1.7,0,0,0-.123-.6,1.869,1.869,0,0,0-.382-.606,2.1,2.1,0,0,0-.664-.47,2.267,2.267,0,0,0-.967-.189.707.707,0,0,0-.224.07q-.163.07-.369.154t-.417.154a1.232,1.232,0,0,1-.387.07A4.748,4.748,0,0,1,25.84-5a.968.968,0,0,1-.4-.132.6.6,0,0,1-.233-.277,1.209,1.209,0,0,1-.075-.466.524.524,0,0,1,.207-.387,2.988,2.988,0,0,1,.505-.356q.3-.171.628-.325t.567-.286a10.375,10.375,0,0,0,.98-.624,8.027,8.027,0,0,0,.927-.769,4.953,4.953,0,0,0,.694-.822,1.435,1.435,0,0,0,.272-.782.686.686,0,0,0-.079-.308.852.852,0,0,0-.25-.29,1.466,1.466,0,0,0-.439-.22,2.087,2.087,0,0,0-.646-.088q-.29,0-.677.035t-.8.092q-.413.057-.817.132t-.734.163a4.364,4.364,0,0,0-.541.176q-.211.088-.246.176-.053.246-.123.7t-.149,1.033q-.079.58-.167,1.252t-.167,1.358q-.079.686-.158,1.336t-.141,1.191q-.062.541-.11.932T23.6-2q-.044.308-.079.6a4.89,4.89,0,0,0-.035.589,1.494,1.494,0,0,1-.123.628,1.3,1.3,0,0,1-.316.439,1.28,1.28,0,0,1-.435.255,1.46,1.46,0,0,1-.479.083.655.655,0,0,1-.439-.149,1.132,1.132,0,0,1-.281-.36,1.7,1.7,0,0,1-.149-.435,2.008,2.008,0,0,1-.044-.374q0-.167.035-.576a7.758,7.758,0,0,1,.158-.971q.132-.562.255-1.305T21.9-5.1q.114-.778.211-1.538T22.28-8q.07-.6.11-.976t.04-.4a.764.764,0,0,0-.053-.369.176.176,0,0,0-.149-.07q-.141,0-.193,0t-.088,0a.552.552,0,0,1-.242-.057.784.784,0,0,1-.215-.154.779.779,0,0,1-.158-.233.728.728,0,0,1-.062-.3.751.751,0,0,1,.264-.5,3.2,3.2,0,0,1,.747-.532,8.446,8.446,0,0,1,1.182-.514,12.7,12.7,0,0,1,1.56-.439,18.33,18.33,0,0,1,1.881-.3,19.353,19.353,0,0,1,2.153-.114A3.172,3.172,0,0,1,30.3-12.7a3.837,3.837,0,0,1,1.02.62,3.087,3.087,0,0,1,.69.826,1.782,1.782,0,0,1,.255.875,1.762,1.762,0,0,1-.242.826,5.94,5.94,0,0,1-.633.927,12,12,0,0,1-.888.967q-.5.488-1.015.936a2.325,2.325,0,0,1,.382.088q.233.07.479.171a4.888,4.888,0,0,1,.466.22A1.7,1.7,0,0,1,31.166-6a3.137,3.137,0,0,1,.338.36,2.782,2.782,0,0,1,.316.5,3.131,3.131,0,0,1,.237.65A3.357,3.357,0,0,1,32.15-3.674ZM45.466-4.21a4.772,4.772,0,0,1-.721,1.762A5.34,5.34,0,0,1,43.4-1.063a6.463,6.463,0,0,1-1.841.905,7.29,7.29,0,0,1-2.2.325,3.629,3.629,0,0,1-.844-.11,6.709,6.709,0,0,1-.892-.281,6.2,6.2,0,0,1-.8-.382,3.29,3.29,0,0,1-.6-.422,4.647,4.647,0,0,1-.773-.949,5.6,5.6,0,0,1-.527-1.112,7.016,7.016,0,0,1-.3-1.191,7.531,7.531,0,0,1-.1-1.187q0-.3.035-.664t.088-.756q.053-.391.123-.782t.132-.743q.088-.466.149-.883t.132-.813q.105-.606.2-1.2a5.993,5.993,0,0,1,.259-1.072,2.042,2.042,0,0,1,.457-.769,1.037,1.037,0,0,1,.773-.294.537.537,0,0,1,.352.154,1.771,1.771,0,0,1,.312.36,2.518,2.518,0,0,1,.224.417.931.931,0,0,1,.088.325,1.537,1.537,0,0,1-.04.237q-.04.185-.105.431L37.56-11l-.141.527q-.066.246-.114.431t-.057.237q-.035.185-.088.51t-.119.721q-.066.4-.132.835t-.114.848q-.048.409-.083.756t-.035.567a6,6,0,0,0,.439,2.347,1.541,1.541,0,0,0,.374.523,3.914,3.914,0,0,0,.593.47,3.514,3.514,0,0,0,.659.338,1.653,1.653,0,0,0,.571.127,5.7,5.7,0,0,0,2.206-.374,2.618,2.618,0,0,0,1.336-1.217,4.081,4.081,0,0,0,.33-.817,8.017,8.017,0,0,0,.189-.839q.07-.417.114-.817t.105-.751q.088-.9.145-1.714t.127-1.529q.07-.712.176-1.288a4.526,4.526,0,0,1,.286-.989,1.625,1.625,0,0,1,.461-.637,1.093,1.093,0,0,1,.7-.224.9.9,0,0,1,.439.1.773.773,0,0,1,.281.259,1.086,1.086,0,0,1,.149.378,2.26,2.26,0,0,1,.044.453,6.345,6.345,0,0,1-.057.778q-.057.453-.132.927t-.154.918q-.079.444-.132.743-.044.281-.079.681t-.062.831q-.035.58-.11,1.257T45.466-4.21Zm13.5-6.97q0,.387,0,.62a3.248,3.248,0,0,1-.026.387.885.885,0,0,1-.07.255,2.086,2.086,0,0,1-.127.224,2.021,2.021,0,0,1-.246.286,1.81,1.81,0,0,1-.312.242A1.892,1.892,0,0,1,57.823-9a1.116,1.116,0,0,1-.378.066.535.535,0,0,1-.479-.215,1.107,1.107,0,0,1-.145-.62,1.338,1.338,0,0,1,.053-.369q.062-.246.1-.422t.053-.312q.018-.136.022-.255t0-.25a.327.327,0,0,0-.092-.272.309.309,0,0,0-.189-.07,2.566,2.566,0,0,0-.756.132,5.446,5.446,0,0,0-.866.36,7.357,7.357,0,0,0-.879.536,7.143,7.143,0,0,0-.8.659,12.19,12.19,0,0,0-1.305,1.481,11.738,11.738,0,0,0-1.042,1.657,9.34,9.34,0,0,0-.686,1.714,6.039,6.039,0,0,0-.246,1.661,3.336,3.336,0,0,0,.1.747,2.475,2.475,0,0,0,.36.817,2.2,2.2,0,0,0,.7.655,2.156,2.156,0,0,0,1.129.268,5.28,5.28,0,0,0,1.2-.145,9.236,9.236,0,0,0,1.257-.391A11.365,11.365,0,0,0,56.18-2.14q.615-.33,1.178-.7.343-.229.571-.36a1.051,1.051,0,0,1,.387-.149A.669.669,0,0,1,58.6-3.3a.505.505,0,0,1,.18.132.526.526,0,0,1,.1.171.544.544,0,0,1,.031.171.746.746,0,0,1-.119.356,2.625,2.625,0,0,1-.3.417,5.242,5.242,0,0,1-.4.409q-.215.2-.4.338a10.472,10.472,0,0,1-1.222.791A11.283,11.283,0,0,1,55.05.154a10.178,10.178,0,0,1-1.485.453,6.626,6.626,0,0,1-1.437.167,4.089,4.089,0,0,1-.6-.062,4.677,4.677,0,0,1-.848-.229,5.315,5.315,0,0,1-.94-.457,3.524,3.524,0,0,1-.866-.747,3.854,3.854,0,0,1-.637-1.1,4.121,4.121,0,0,1-.25-1.5,7.463,7.463,0,0,1,.242-1.863,10.134,10.134,0,0,1,.69-1.872,12.944,12.944,0,0,1,1.085-1.837,16.149,16.149,0,0,1,1.428-1.749q.308-.325.69-.659t.809-.646q.426-.312.883-.584a8.1,8.1,0,0,1,.923-.475,6.361,6.361,0,0,1,.918-.321,3.445,3.445,0,0,1,.875-.119,2.462,2.462,0,0,1,1.1.229,2.361,2.361,0,0,1,.756.571,2.324,2.324,0,0,1,.435.738A2.191,2.191,0,0,1,58.966-11.18ZM73.7-2.531a1.091,1.091,0,0,1-.105.47,1.128,1.128,0,0,1-.3.387,1.489,1.489,0,0,1-.466.259,1.8,1.8,0,0,1-.606.1A5.6,5.6,0,0,1,70.6-1.687Q69.7-2,68.744-2.4t-1.956-.9a7.506,7.506,0,0,0-1.173-.448,9.4,9.4,0,0,0-1.525-.316,1,1,0,0,0-.066.25q-.031.18-.053.4t-.031.448q-.009.229-.009.4a2.976,2.976,0,0,0,.062.655,2.877,2.877,0,0,0,.185.541,4,4,0,0,1,.246.567,1.316,1.316,0,0,1,.079.382.71.71,0,0,1-.352.589,3.252,3.252,0,0,1-1.028.422A2.839,2.839,0,0,1,62.4.009a2.424,2.424,0,0,1-.422-.694,3.146,3.146,0,0,1-.2-.813,8.325,8.325,0,0,1-.048-.918q0-.29.013-.8t.035-1.169q.022-.655.048-1.4l.053-1.494q.026-.747.053-1.45t.048-1.274q.022-.571.035-.954t.013-.5a1.072,1.072,0,0,0-.009-.119q-.009-.075-.022-.163t-.022-.176q-.009-.088-.009-.141a.984.984,0,0,1,.334-.694,1.052,1.052,0,0,1,.747-.3,1.45,1.45,0,0,1,.694.185q.51.255.51.606a1.778,1.778,0,0,1-.031.3q-.031.176-.048.308-.044.316-.07.646t-.044.69q-.044.9-.075,1.912l-.066,2.175q.062-.035.163-.088t.215-.119q.114-.066.229-.136t.2-.132a10.922,10.922,0,0,0,1.419-1.033,11.884,11.884,0,0,0,1.393-1.419q.457-.545.835-.98t.712-.809q.334-.374.637-.708t.62-.659q.062-.062.158-.154a1.868,1.868,0,0,1,.215-.176,1.405,1.405,0,0,1,.25-.141.679.679,0,0,1,.272-.057.564.564,0,0,1,.308.123,2.034,2.034,0,0,1,.33.29,2.216,2.216,0,0,1,.264.347.619.619,0,0,1,.11.3,1.08,1.08,0,0,1-.141.431l-.149.308a.535.535,0,0,0-.048.114q-.022.07-.04.114-.026.079-.053.141a.484.484,0,0,1-.079.123.817.817,0,0,1-.136.123,1.566,1.566,0,0,1-.224.132,1.591,1.591,0,0,1-.189.079q-.1.035-.193.075a1.322,1.322,0,0,0-.158.079.189.189,0,0,0-.083.083q-.3.466-.5.725l-.352.453q-.246.308-.571.646t-.659.646q-.334.308-.69.611t-.69.549q-.141.105-.286.2l-.308.2-.347.224q-.185.119-.4.268,1.037.36,2.145.839t2.3.918q.387.141.6.22t.352.119a1.331,1.331,0,0,0,.25.048q.11.009.294.009.088,0,.255-.018t.369-.044q.2-.026.426-.062t.426-.062A2.542,2.542,0,0,1,73.613-3,1.436,1.436,0,0,1,73.7-2.531Zm13.948-9.721a.782.782,0,0,1-.048.233,1.72,1.72,0,0,1-.132.294,1.843,1.843,0,0,1-.189.277.642.642,0,0,1-.22.18,2.128,2.128,0,0,1-.444.167q-.215.053-.523.114-.809.158-1.582.264t-1.463.171q-.69.066-1.261.092t-.967.026H79q-.237,0-.457-.018-.026.29-.048.7t-.048.844q-.026.431-.053.831t-.07.672q.237.026.558.035t.62.009q.431,0,.857-.031t.708-.057q.141-.018.439-.035t.637-.044q.338-.026.659-.062a4.327,4.327,0,0,0,.505-.079q.176-.079.33-.141a2.765,2.765,0,0,1,.3-.1,2,2,0,0,1,.3-.057,2.909,2.909,0,0,1,.33-.018.775.775,0,0,1,.4.092.661.661,0,0,1,.246.246,1.086,1.086,0,0,1,.123.352,2.331,2.331,0,0,1,.035.409.633.633,0,0,1-.145.431,1.2,1.2,0,0,1-.356.277,1.977,1.977,0,0,1-.444.167q-.233.057-.4.092a4.5,4.5,0,0,1-.532.07q-.382.035-.883.075T81.541-5.7q-.558.035-1.059.057l-.892.04q-.391.018-.558.018a2.657,2.657,0,0,0-.5.044q-.229.044-.483.114a7.726,7.726,0,0,0-.167.914A10.337,10.337,0,0,1,77.7-3.48q-.044.211-.092.431t-.088.417q-.04.2-.066.365T77.414-2Q77.6-2,77.84-2t.505-.026q.264-.018.532-.04t.505-.048l1.068-.092.8-.07q.356-.031.659-.066t.655-.088q.185-.026.444-.053l.536-.057q.277-.031.554-.07a4.277,4.277,0,0,0,.505-.1,2.305,2.305,0,0,0,.286-.092q.145-.057.294-.11a2.755,2.755,0,0,1,.3-.088,1.4,1.4,0,0,1,.312-.035.84.84,0,0,1,.356.079.969.969,0,0,1,.3.22,1.069,1.069,0,0,1,.211.338,1.137,1.137,0,0,1,.079.426.507.507,0,0,1-.083.224,1.413,1.413,0,0,1-.229.29,1.843,1.843,0,0,1-.347.268,1.289,1.289,0,0,1-.439.167q-.773.149-1.556.233t-1.723.207l-1.354.158q-.677.079-1.257.154l-1.02.132q-.439.057-.65.1a4.087,4.087,0,0,0-.431.1q-.229.066-.461.127T76.755.29a1.874,1.874,0,0,1-.378.044h-.018a1.848,1.848,0,0,1-.554-.075A.83.83,0,0,1,75.41,0a1.292,1.292,0,0,1-.242-.51,3.257,3.257,0,0,1-.083-.8,3.954,3.954,0,0,1,.1-.839q.1-.461.224-1.1.123-.615.237-1.125t.215-.993q.1-.483.185-.962t.127-1.033q.009-.062.026-.3t.04-.562q.022-.325.048-.694t.053-.694q.026-.325.04-.562t.013-.308a1.246,1.246,0,0,0-.018-.176,1.272,1.272,0,0,1-.018-.185,1.513,1.513,0,0,1,.075-.444,2.154,2.154,0,0,1,.233-.5.947.947,0,0,1,.272-.268,3.271,3.271,0,0,1,.422-.25,2.915,2.915,0,0,1,.461-.185,1.42,1.42,0,0,1,.4-.07,2.023,2.023,0,0,1,.3.035q.207.035.431.079t.426.079a1.939,1.939,0,0,0,.29.035q.2,0,.549.009t.76.009q.773,0,1.56-.057t1.6-.189a5.462,5.462,0,0,0,.677-.158l.62-.189q.3-.092.611-.158a3.1,3.1,0,0,1,.65-.066.812.812,0,0,1,.334.075,1.1,1.1,0,0,1,.3.2,1.163,1.163,0,0,1,.224.286A.662.662,0,0,1,87.645-12.252Zm13.6.756a.958.958,0,0,1-.083.435.686.686,0,0,1-.215.255.75.75,0,0,1-.286.123,1.5,1.5,0,0,1-.294.031q-.316,0-.567,0t-.488-.013q-.237-.009-.5-.013t-.6,0q-.22,0-.505.026t-.593.07q-.308.044-.615.105t-.571.123q-.264.062-.461.127a1.553,1.553,0,0,0-.286.119.34.34,0,0,0-.11.2,1.02,1.02,0,0,0-.048.286L94.79-7.523q-.132,1.23-.25,2.421t-.119,2.351q0,.158.026.453t.062.584l.062.51q.026.22.026.237a1.494,1.494,0,0,1-.066.431,1.371,1.371,0,0,1-.189.4,1.006,1.006,0,0,1-.3.286.769.769,0,0,1-.409.11A.776.776,0,0,1,93.313.18a1.488,1.488,0,0,1-.325-.2,1.518,1.518,0,0,1-.281-.3,1.505,1.505,0,0,1-.193-.365,2.711,2.711,0,0,1-.123-.51q-.044-.29-.07-.593t-.035-.6q-.009-.294-.009-.532,0-.4.044-1t.11-1.292q.066-.69.145-1.406t.154-1.345q.075-.628.132-1.094t.075-.659a6.609,6.609,0,0,0-.712.048q-.431.048-.932.11-.633.079-1.3.149a12.114,12.114,0,0,1-1.266.07q-.123,0-.343-.022a2.161,2.161,0,0,1-.431-.088,1.212,1.212,0,0,1-.369-.185.372.372,0,0,1-.158-.312q-.018-.07-.022-.092a.785.785,0,0,1,0-.11,1.571,1.571,0,0,1,.026-.29.79.79,0,0,1,.1-.259.631.631,0,0,1,.207-.207,1.158,1.158,0,0,1,.347-.141,8.2,8.2,0,0,1,1.1-.189,11.216,11.216,0,0,1,1.213-.066q.114,0,.426-.035t.729-.088q.417-.053.9-.119l.914-.127q.435-.062.778-.114l.5-.079q.571-.105,1.143-.229t1.143-.237q.571-.114,1.138-.189a8.57,8.57,0,0,1,1.121-.075l.229,0q.158,0,.36.022t.426.053a2.816,2.816,0,0,1,.417.1.613.613,0,0,1,.264.158,1.291,1.291,0,0,1,.2.255,1.365,1.365,0,0,1,.127.277A.764.764,0,0,1,101.241-11.5Z" transform="translate(67 91)"/>
</svg>
